<svg xmlns="http://www.w3.org/2000/svg" xmlns:xlink="http://www.w3.org/1999/xlink" viewBox="0 0 360 640">
  <defs>
    <style>
      .cls-1 {
        clip-path: url(#clip-Crear_configuración);
      }

      .cls-2 {
        fill: #673ab7;
      }

      .cls-3, .cls-9 {
        fill: none;
      }

      .cls-14, .cls-4, .cls-5, .cls-8 {
        fill: #fff;
      }

      .cls-16, .cls-17, .cls-4 {
        font-size: 20px;
      }

      .cls-10, .cls-12, .cls-15, .cls-16, .cls-17, .cls-4, .cls-8 {
        font-family: SegoeUI, Segoe UI;
      }

      .cls-6 {
        fill: #512da8;
      }

      .cls-7 {
        opacity: 0.9;
      }

      .cls-10, .cls-12, .cls-8 {
        font-size: 14px;
      }

      .cls-9 {
        stroke: #fff;
        stroke-width: 2px;
      }

      .cls-10, .cls-15 {
        fill: rgba(0,0,0,0.54);
      }

      .cls-11 {
        fill: #e0e0e0;
      }

      .cls-12 {
        fill: rgba(0,0,0,0.87);
        letter-spacing: 0.01em;
      }

      .cls-13 {
        fill: #2a56c6;
        stroke: rgba(255,255,255,0.12);
      }

      .cls-13, .cls-14 {
        stroke-width: 0.5px;
      }

      .cls-14 {
        stroke: rgba(255,255,255,0.8);
      }

      .cls-15 {
        font-size: 12px;
      }

      .cls-16, .cls-17 {
        fill: rgba(0,0,0,0.85);
      }

      .cls-16 {
        opacity: 0.81;
      }

      .cls-18 {
        filter: url(#Card_bg-2);
      }

      .cls-19 {
        filter: url(#Card_bg);
      }

      .cls-20 {
        filter: url(#Button_bg-6);
      }

      .cls-21 {
        filter: url(#Button_bg-5);
      }

      .cls-22 {
        filter: url(#Button_bg-4);
      }

      .cls-23 {
        filter: url(#Button_bg-3);
      }

      .cls-24 {
        filter: url(#Button_bg-2);
      }

      .cls-25 {
        filter: url(#Button_bg);
      }

      .cls-26 {
        filter: url(#Tool_bar_bg-2);
      }

      .cls-27 {
        filter: url(#Tool_bar_bg);
      }
    </style>
    <filter id="Tool_bar_bg" x="-6" y="-6" width="372" height="92" filterUnits="userSpaceOnUse">
      <feOffset input="SourceAlpha"/>
      <feGaussianBlur stdDeviation="2" result="blur"/>
      <feFlood flood-opacity="0.122"/>
      <feComposite operator="in" in2="blur"/>
      <feComposite in="SourceGraphic"/>
    </filter>
    <filter id="Tool_bar_bg-2" x="-6" y="-2" width="372" height="92" filterUnits="userSpaceOnUse">
      <feOffset dy="4" input="SourceAlpha"/>
      <feGaussianBlur stdDeviation="2" result="blur-2"/>
      <feFlood flood-opacity="0.239"/>
      <feComposite operator="in" in2="blur-2"/>
      <feComposite in="SourceGraphic"/>
    </filter>
    <filter id="Button_bg" x="29" y="521" width="94" height="42" filterUnits="userSpaceOnUse">
      <feOffset input="SourceAlpha"/>
      <feGaussianBlur stdDeviation="1" result="blur-3"/>
      <feFlood flood-opacity="0.122"/>
      <feComposite operator="in" in2="blur-3"/>
      <feComposite in="SourceGraphic"/>
    </filter>
    <filter id="Button_bg-2" x="29" y="523" width="94" height="42" filterUnits="userSpaceOnUse">
      <feOffset dy="2" input="SourceAlpha"/>
      <feGaussianBlur stdDeviation="1" result="blur-4"/>
      <feFlood flood-opacity="0.239"/>
      <feComposite operator="in" in2="blur-4"/>
      <feComposite in="SourceGraphic"/>
    </filter>
    <filter id="Button_bg-3" x="241" y="521" width="94" height="42" filterUnits="userSpaceOnUse">
      <feOffset input="SourceAlpha"/>
      <feGaussianBlur stdDeviation="1" result="blur-5"/>
      <feFlood flood-opacity="0.122"/>
      <feComposite operator="in" in2="blur-5"/>
      <feComposite in="SourceGraphic"/>
    </filter>
    <filter id="Button_bg-4" x="241" y="523" width="94" height="42" filterUnits="userSpaceOnUse">
      <feOffset dy="2" input="SourceAlpha"/>
      <feGaussianBlur stdDeviation="1" result="blur-6"/>
      <feFlood flood-opacity="0.239"/>
      <feComposite operator="in" in2="blur-6"/>
      <feComposite in="SourceGraphic"/>
    </filter>
    <filter id="Button_bg-5" x="266.75" y="434.75" width="74.5" height="74.5" filterUnits="userSpaceOnUse">
      <feOffset input="SourceAlpha"/>
      <feGaussianBlur stdDeviation="3" result="blur-7"/>
      <feFlood flood-opacity="0.122"/>
      <feComposite operator="in" in2="blur-7"/>
      <feComposite in="SourceGraphic"/>
    </filter>
    <filter id="Button_bg-6" x="266.75" y="440.75" width="74.5" height="74.5" filterUnits="userSpaceOnUse">
      <feOffset dy="6" input="SourceAlpha"/>
      <feGaussianBlur stdDeviation="3" result="blur-8"/>
      <feFlood flood-opacity="0.239"/>
      <feComposite operator="in" in2="blur-8"/>
      <feComposite in="SourceGraphic"/>
    </filter>
    <filter id="Card_bg" x="4.75" y="124.75" width="350.5" height="146.678" filterUnits="userSpaceOnUse">
      <feOffset input="SourceAlpha"/>
      <feGaussianBlur stdDeviation="1" result="blur-9"/>
      <feFlood flood-opacity="0.122"/>
      <feComposite operator="in" in2="blur-9"/>
      <feComposite in="SourceGraphic"/>
    </filter>
    <filter id="Card_bg-2" x="4.75" y="126.75" width="350.5" height="146.678" filterUnits="userSpaceOnUse">
      <feOffset dy="2" input="SourceAlpha"/>
      <feGaussianBlur stdDeviation="1" result="blur-10"/>
      <feFlood flood-opacity="0.239"/>
      <feComposite operator="in" in2="blur-10"/>
      <feComposite in="SourceGraphic"/>
    </filter>
    <clipPath id="clip-Crear_configuración">
      <rect width="360" height="640"/>
    </clipPath>
  </defs>
  <g id="Crear_configuración" data-name="Crear configuración" class="cls-1">
    <rect class="cls-5" width="360" height="640"/>
    <g id="_1" data-name="#1">
      <g id="Tool_bar" data-name="Tool bar">
        <g id="Tool_bar_bg-3" data-name="Tool bar bg">
          <g class="cls-27" transform="matrix(1, 0, 0, 1, 0, 0)">
            <path id="Tool_bar_bg-4" data-name="Tool bar bg" class="cls-2" d="M360,0H0V80H360Z"/>
          </g>
          <g class="cls-26" transform="matrix(1, 0, 0, 1, 0, 0)">
            <path id="Tool_bar_bg-5" data-name="Tool bar bg" class="cls-2" d="M360,0H0V80H360Z"/>
          </g>
        </g>
        <g id="Tool_bar_contents" data-name="Tool bar contents" transform="translate(16 40)">
          <path id="Bounds" class="cls-3" d="M360,0H0V56H360Z" transform="translate(-16 -16)"/>
          <text id="NombreApp" class="cls-4" transform="translate(56 19)"><tspan x="0" y="0">NombreApp</tspan></text>
          <g id="Burger_Button" data-name="Burger Button" transform="translate(0 -1)">
            <rect id="Bounds-2" data-name="Bounds" class="cls-3" width="24" height="24"/>
            <path id="Icon" class="cls-5" d="M3,18H21V16H3v2Zm0-5H21V11H3v2ZM3,6V8H21V6Z"/>
          </g>
        </g>
      </g>
      <g id="Status_bar" data-name="Status bar">
        <rect id="Status_bar_bg" data-name="Status bar bg" class="cls-6" width="360" height="24"/>
        <g id="Status_bar-2" data-name="Status bar">
          <rect id="Bounds-3" data-name="Bounds" class="cls-3" width="118" height="24" transform="translate(242)"/>
          <g id="Time" class="cls-7" transform="translate(316 4)">
            <text id="_12:30" data-name="12:30" class="cls-8" transform="translate(0.46 13)"><tspan x="0" y="0">12:30</tspan></text>
          </g>
          <g id="Battery" transform="translate(297 4)">
            <path id="Bounds-4" data-name="Bounds" class="cls-3" d="M0,0H16V16H0Z"/>
            <path id="Shape" class="cls-5" d="M9,1.9V1H6v.9H3V15h9V1.9Z"/>
          </g>
          <g id="Cellular" transform="translate(277 4)">
            <path id="Bounds-5" data-name="Bounds" class="cls-3" d="M0,0H16V16H0Z"/>
            <path id="Shape-2" data-name="Shape" class="cls-5" d="M0,15H14V1Z"/>
          </g>
          <g id="Wifi" transform="translate(256 4)">
            <path id="Bounds-6" data-name="Bounds" class="cls-3" d="M2,0H18V16H2Z"/>
            <path id="Shape-3" data-name="Shape" class="cls-5" d="M19,4a14.76,14.76,0,0,0-9-3A14.76,14.76,0,0,0,1,4l9,11Z"/>
          </g>
        </g>
      </g>
    </g>
    <g id="Navbar">
      <rect id="Navbar_bg" data-name="Navbar bg" width="360" height="48" transform="translate(0 592)"/>
      <g id="Recent" transform="translate(231 592)">
        <rect id="Bounds-7" data-name="Bounds" class="cls-3" width="100" height="48"/>
        <path id="Recent-2" data-name="Recent" class="cls-9" d="M44,16H56a2.006,2.006,0,0,1,2,2V30a2.006,2.006,0,0,1-2,2H44a2.006,2.006,0,0,1-2-2V18A2.006,2.006,0,0,1,44,16Z"/>
      </g>
      <g id="Home" transform="translate(130 592)">
        <rect id="Bounds-8" data-name="Bounds" class="cls-3" width="100" height="48"/>
        <circle id="Home-2" data-name="Home" class="cls-9" cx="8" cy="8" r="8" transform="translate(42 16)"/>
      </g>
      <g id="Back" transform="translate(29 592)">
        <rect id="Bounds-9" data-name="Bounds" class="cls-3" width="100" height="48"/>
        <path id="Back-2" data-name="Back" class="cls-9" d="M56.3,15.2c1-.6,1.7-.1,1.7,1V30.7c0,1.1-.8,1.6-1.7,1L43.8,24.4c-1-.6-1-1.4,0-2Z"/>
      </g>
    </g>
    <g id="Subheader" transform="translate(0 216)">
      <rect id="Bounds-10" data-name="Bounds" class="cls-3" width="360" height="48" transform="translate(0 -136)"/>
      <text id="Crear_configuración-2" data-name="Crear configuración" class="cls-10" transform="translate(16 -108)"><tspan x="0" y="0">Crear configuración</tspan></text>
    </g>
    <g id="Raised_Normal" data-name="Raised Normal" transform="translate(-129 464)">
      <g id="Button_bg-7" data-name="Button bg" transform="translate(161 60)">
        <g class="cls-25" transform="matrix(1, 0, 0, 1, -32, -524)">
          <path id="Button_bg-8" data-name="Button bg" class="cls-11" d="M2,0H86a2.006,2.006,0,0,1,2,2V34a2.006,2.006,0,0,1-2,2H2a2.006,2.006,0,0,1-2-2V2A2.006,2.006,0,0,1,2,0Z" transform="translate(32 524)"/>
        </g>
        <g class="cls-24" transform="matrix(1, 0, 0, 1, -32, -524)">
          <path id="Button_bg-9" data-name="Button bg" class="cls-11" d="M2,0H86a2.006,2.006,0,0,1,2,2V34a2.006,2.006,0,0,1-2,2H2a2.006,2.006,0,0,1-2-2V2A2.006,2.006,0,0,1,2,0Z" transform="translate(32 524)"/>
        </g>
      </g>
      <text id="CANCELAR" class="cls-12" transform="translate(205.443 83)"><tspan x="-34.653" y="0">CANCELAR</tspan></text>
    </g>
    <g id="Raised_Normal-2" data-name="Raised Normal" transform="translate(83 464)">
      <g id="Button_bg-10" data-name="Button bg" transform="translate(161 60)">
        <g class="cls-23" transform="matrix(1, 0, 0, 1, -244, -524)">
          <path id="Button_bg-11" data-name="Button bg" class="cls-11" d="M2,0H86a2.006,2.006,0,0,1,2,2V34a2.006,2.006,0,0,1-2,2H2a2.006,2.006,0,0,1-2-2V2A2.006,2.006,0,0,1,2,0Z" transform="translate(244 524)"/>
        </g>
        <g class="cls-22" transform="matrix(1, 0, 0, 1, -244, -524)">
          <path id="Button_bg-12" data-name="Button bg" class="cls-11" d="M2,0H86a2.006,2.006,0,0,1,2,2V34a2.006,2.006,0,0,1-2,2H2a2.006,2.006,0,0,1-2-2V2A2.006,2.006,0,0,1,2,0Z" transform="translate(244 524)"/>
        </g>
      </g>
      <text id="ACEPTAR" class="cls-12" transform="translate(205.443 83)"><tspan x="-28.485" y="0">ACEPTAR</tspan></text>
    </g>
    <g id="Button" transform="translate(96 444)">
      <g id="Button_bg-13" data-name="Button bg" transform="translate(180)">
        <g class="cls-21" transform="matrix(1, 0, 0, 1, -276, -444)">
          <circle id="Button_bg-14" data-name="Button bg" class="cls-13" cx="28" cy="28" r="28" transform="translate(276 444)"/>
        </g>
        <g class="cls-20" transform="matrix(1, 0, 0, 1, -276, -444)">
          <circle id="Button_bg-15" data-name="Button bg" class="cls-13" cx="28" cy="28" r="28" transform="translate(276 444)"/>
        </g>
      </g>
      <g id="Add_Icon" data-name="Add Icon" transform="translate(196 16)">
        <rect id="Bounds-11" data-name="Bounds" class="cls-3" width="24" height="24"/>
        <path id="Icon-2" data-name="Icon" class="cls-5" d="M11,5v6H5v2h6v6h2V13h6V11H13V5Z"/>
      </g>
    </g>
    <g id="Card_2" data-name="Card #2" transform="translate(8 128)">
      <g id="Card_bg-3" data-name="Card bg">
        <g class="cls-19" transform="matrix(1, 0, 0, 1, -8, -128)">
          <path id="Card_bg-4" data-name="Card bg" class="cls-14" d="M166,0H506c1.1,0,2,.509,2,1.13V139.048c0,.622-.9,1.13-2,1.13H166c-1.1,0-2-.509-2-1.13V1.13C164,.509,164.9,0,166,0Z" transform="translate(-156 128)"/>
        </g>
        <g class="cls-18" transform="matrix(1, 0, 0, 1, -8, -128)">
          <path id="Card_bg-5" data-name="Card bg" class="cls-14" d="M166,0H506c1.1,0,2,.509,2,1.13V139.048c0,.622-.9,1.13-2,1.13H166c-1.1,0-2-.509-2-1.13V1.13C164,.509,164.9,0,166,0Z" transform="translate(-156 128)"/>
        </g>
      </g>
      <text id="Hora_inicio" data-name="Hora inicio" class="cls-15" transform="translate(39 27)"><tspan x="0" y="0">Hora inicio</tspan></text>
      <text id="Hora_final" data-name="Hora final" class="cls-15" transform="translate(229 27)"><tspan x="0" y="0">Hora final</tspan></text>
      <text id="L" class="cls-16" transform="translate(58 110.035)"><tspan x="0" y="0">L</tspan></text>
      <text id="HH:mm" class="cls-17" transform="translate(34 65.035)"><tspan x="0" y="0">HH:mm</tspan></text>
      <text id="HH:mm-2" data-name="HH:mm" class="cls-17" transform="translate(227 65.035)"><tspan x="0" y="0">HH:mm</tspan></text>
      <text id="M" class="cls-16" transform="translate(87 110.035)"><tspan x="0" y="0">M</tspan></text>
      <text id="X" class="cls-16" transform="translate(125 110.035)"><tspan x="0" y="0">X</tspan></text>
      <text id="J" class="cls-16" transform="translate(157 110.035)"><tspan x="0" y="0">J</tspan></text>
      <text id="V" class="cls-16" transform="translate(184 110.035)"><tspan x="0" y="0">V</tspan></text>
      <text id="S" class="cls-16" transform="translate(216 110.035)"><tspan x="0" y="0">S</tspan></text>
      <text id="D" class="cls-16" transform="translate(247 110.035)"><tspan x="0" y="0">D</tspan></text>
    </g>
  </g>
</svg>
