<svg xmlns="http://www.w3.org/2000/svg" xmlns:xlink="http://www.w3.org/1999/xlink" viewBox="0 0 360 640">
  <defs>
    <style>
      .cls-1 {
        clip-path: url(#clip-Estadísticas_Comparación_Global);
      }

      .cls-2 {
        fill: #673ab7;
      }

      .cls-10, .cls-3 {
        fill: none;
      }

      .cls-14, .cls-4, .cls-5, .cls-8 {
        fill: #fff;
      }

      .cls-19, .cls-4 {
        font-size: 20px;
      }

      .cls-11, .cls-13, .cls-14, .cls-16, .cls-19, .cls-4, .cls-8, .cls-9 {
        font-family: SegoeUI, Segoe UI;
      }

      .cls-6 {
        fill: #512da8;
      }

      .cls-7 {
        opacity: 0.9;
      }

      .cls-11, .cls-13, .cls-14, .cls-8, .cls-9 {
        font-size: 14px;
      }

      .cls-9 {
        fill: rgba(255,255,255,0.7);
      }

      .cls-14, .cls-9 {
        letter-spacing: 0.01em;
      }

      .cls-10 {
        stroke: #fff;
        stroke-width: 2px;
      }

      .cls-11 {
        fill: rgba(0,0,0,0.54);
      }

      .cls-12 {
        opacity: 0.54;
      }

      .cls-13 {
        fill: rgba(0,0,0,0.87);
      }

      .cls-15 {
        fill: url(#pattern);
      }

      .cls-16, .cls-19 {
        fill: rgba(0,0,0,0.91);
      }

      .cls-16 {
        font-size: 12px;
      }

      .cls-17 {
        fill: #d1d3d4;
      }

      .cls-18 {
        fill: #008466;
        fill-rule: evenodd;
      }

      .cls-20 {
        fill: url(#pattern-2);
      }

      .cls-21 {
        filter: url(#Card_bg-4);
      }

      .cls-22 {
        filter: url(#Card_bg-3);
      }

      .cls-23 {
        filter: url(#Card_bg-2);
      }

      .cls-24 {
        filter: url(#Card_bg);
      }

      .cls-25 {
        filter: url(#Tool_bar_bg-2);
      }

      .cls-26 {
        filter: url(#Tool_bar_bg);
      }
    </style>
    <filter id="Tool_bar_bg" x="-6" y="-6" width="372" height="92" filterUnits="userSpaceOnUse">
      <feOffset input="SourceAlpha"/>
      <feGaussianBlur stdDeviation="2" result="blur"/>
      <feFlood flood-opacity="0.122"/>
      <feComposite operator="in" in2="blur"/>
      <feComposite in="SourceGraphic"/>
    </filter>
    <filter id="Tool_bar_bg-2" x="-6" y="-2" width="372" height="92" filterUnits="userSpaceOnUse">
      <feOffset dy="4" input="SourceAlpha"/>
      <feGaussianBlur stdDeviation="2" result="blur-2"/>
      <feFlood flood-opacity="0.239"/>
      <feComposite operator="in" in2="blur-2"/>
      <feComposite in="SourceGraphic"/>
    </filter>
    <filter id="Card_bg" x="5" y="185" width="350" height="159.819" filterUnits="userSpaceOnUse">
      <feOffset input="SourceAlpha"/>
      <feGaussianBlur stdDeviation="1" result="blur-3"/>
      <feFlood flood-opacity="0.122"/>
      <feComposite operator="in" in2="blur-3"/>
      <feComposite in="SourceGraphic"/>
    </filter>
    <pattern id="pattern" preserveAspectRatio="xMidYMid slice" width="100%" height="100%" viewBox="0 0 100 100">
      <image width="100" height="100" xlink:href="../../Downloads/icons8-globe-100.png"/>
    </pattern>
    <filter id="Card_bg-2" x="257.396" y="227.083" width="81.604" height="82.31" filterUnits="userSpaceOnUse">
      <feOffset dy="2" input="SourceAlpha"/>
      <feGaussianBlur stdDeviation="1" result="blur-4"/>
      <feFlood flood-opacity="0.239"/>
      <feComposite operator="in" in2="blur-4"/>
      <feComposite in="SourceGraphic"/>
    </filter>
    <filter id="Card_bg-3" x="5" y="339" width="350" height="139.968" filterUnits="userSpaceOnUse">
      <feOffset input="SourceAlpha"/>
      <feGaussianBlur stdDeviation="1" result="blur-5"/>
      <feFlood flood-opacity="0.122"/>
      <feComposite operator="in" in2="blur-5"/>
      <feComposite in="SourceGraphic"/>
    </filter>
    <pattern id="pattern-2" preserveAspectRatio="xMidYMid slice" width="100%" height="100%" viewBox="0 0 64 64">
      <image width="64" height="64" xlink:href="../../Downloads/icons8-light-on-64.png"/>
    </pattern>
    <filter id="Card_bg-4" x="36.557" y="511.909" width="62.269" height="60.058" filterUnits="userSpaceOnUse">
      <feOffset input="SourceAlpha"/>
      <feGaussianBlur stdDeviation="1" result="blur-6"/>
      <feFlood flood-opacity="0.122"/>
      <feComposite operator="in" in2="blur-6"/>
      <feComposite in="SourceGraphic"/>
    </filter>
    <clipPath id="clip-Estadísticas_Comparación_Global">
      <rect width="360" height="640"/>
    </clipPath>
  </defs>
  <g id="Estadísticas_Comparación_Global" data-name="Estadísticas – Comparación – Global" class="cls-1">
    <rect class="cls-5" width="360" height="640"/>
    <g id="_1" data-name="#1">
      <g id="Tool_bar" data-name="Tool bar">
        <g id="Tool_bar_bg-3" data-name="Tool bar bg">
          <g class="cls-26" transform="matrix(1, 0, 0, 1, 0, 0)">
            <path id="Tool_bar_bg-4" data-name="Tool bar bg" class="cls-2" d="M360,0H0V80H360Z"/>
          </g>
          <g class="cls-25" transform="matrix(1, 0, 0, 1, 0, 0)">
            <path id="Tool_bar_bg-5" data-name="Tool bar bg" class="cls-2" d="M360,0H0V80H360Z"/>
          </g>
        </g>
        <g id="Tool_bar_contents" data-name="Tool bar contents" transform="translate(16 40)">
          <path id="Bounds" class="cls-3" d="M360,0H0V56H360Z" transform="translate(-16 -16)"/>
          <text id="NombreApp" class="cls-4" transform="translate(56 19)"><tspan x="0" y="0">NombreApp</tspan></text>
          <g id="Burger_Button" data-name="Burger Button" transform="translate(0 -1)">
            <rect id="Bounds-2" data-name="Bounds" class="cls-3" width="24" height="24"/>
            <path id="Icon" class="cls-5" d="M3,18H21V16H3v2Zm0-5H21V11H3v2ZM3,6V8H21V6Z"/>
          </g>
        </g>
      </g>
      <g id="Status_bar" data-name="Status bar">
        <rect id="Status_bar_bg" data-name="Status bar bg" class="cls-6" width="360" height="24"/>
        <g id="Status_bar-2" data-name="Status bar">
          <rect id="Bounds-3" data-name="Bounds" class="cls-3" width="118" height="24" transform="translate(242)"/>
          <g id="Time" class="cls-7" transform="translate(316 4)">
            <text id="_12:30" data-name="12:30" class="cls-8" transform="translate(0.46 13)"><tspan x="0" y="0">12:30</tspan></text>
          </g>
          <g id="Battery" transform="translate(297 4)">
            <path id="Bounds-4" data-name="Bounds" class="cls-3" d="M0,0H16V16H0Z"/>
            <path id="Shape" class="cls-5" d="M9,1.9V1H6v.9H3V15h9V1.9Z"/>
          </g>
          <g id="Cellular" transform="translate(277 4)">
            <path id="Bounds-5" data-name="Bounds" class="cls-3" d="M0,0H16V16H0Z"/>
            <path id="Shape-2" data-name="Shape" class="cls-5" d="M0,15H14V1Z"/>
          </g>
          <g id="Wifi" transform="translate(256 4)">
            <path id="Bounds-6" data-name="Bounds" class="cls-3" d="M2,0H18V16H2Z"/>
            <path id="Shape-3" data-name="Shape" class="cls-5" d="M19,4a14.76,14.76,0,0,0-9-3A14.76,14.76,0,0,0,1,4l9,11Z"/>
          </g>
        </g>
      </g>
    </g>
    <g id="_1-2" data-name="#1" transform="translate(0 80)">
      <rect id="Bounds-7" data-name="Bounds" class="cls-2" width="360" height="48"/>
      <text id="LOCAL" class="cls-9" transform="translate(163.958 30)"><tspan x="-20.757" y="0">LOCAL</tspan></text>
      <text id="PERSONAL" class="cls-9" transform="translate(59.958 30)"><tspan x="-34.181" y="0">PERSONAL</tspan></text>
      <rect id="Indicator" class="cls-5" width="70" height="2" transform="translate(285 46)"/>
      <text id="NACIONAL" class="cls-9" transform="translate(241.958 30)"><tspan x="-34.625" y="0">NACIONAL</tspan></text>
    </g>
    <g id="Navbar">
      <rect id="Navbar_bg" data-name="Navbar bg" width="360" height="48" transform="translate(0 592)"/>
      <g id="Recent" transform="translate(231 592)">
        <rect id="Bounds-8" data-name="Bounds" class="cls-3" width="100" height="48"/>
        <path id="Recent-2" data-name="Recent" class="cls-10" d="M44,16H56a2.006,2.006,0,0,1,2,2V30a2.006,2.006,0,0,1-2,2H44a2.006,2.006,0,0,1-2-2V18A2.006,2.006,0,0,1,44,16Z"/>
      </g>
      <g id="Home" transform="translate(130 592)">
        <rect id="Bounds-9" data-name="Bounds" class="cls-3" width="100" height="48"/>
        <circle id="Home-2" data-name="Home" class="cls-10" cx="8" cy="8" r="8" transform="translate(42 16)"/>
      </g>
      <g id="Back" transform="translate(29 592)">
        <rect id="Bounds-10" data-name="Bounds" class="cls-3" width="100" height="48"/>
        <path id="Back-2" data-name="Back" class="cls-10" d="M56.3,15.2c1-.6,1.7-.1,1.7,1V30.7c0,1.1-.8,1.6-1.7,1L43.8,24.4c-1-.6-1-1.4,0-2Z"/>
      </g>
    </g>
    <g id="Subheader" transform="translate(-5 269)">
      <rect id="Bounds-11" data-name="Bounds" class="cls-3" width="360" height="48" transform="translate(0 -136)"/>
      <text id="Comparar_mis_estadísticas_de" data-name="Comparar mis estadísticas de" class="cls-11" transform="translate(16 -108)"><tspan x="0" y="0">Comparar mis estadísticas de</tspan></text>
    </g>
    <g id="Short_Light" data-name="Short Light" transform="translate(202.359 133)">
      <rect id="Bounds-12" data-name="Bounds" class="cls-5" width="117.652" height="48"/>
      <g id="Expand_more_" data-name="Expand more " transform="translate(83.652 12)">
        <rect id="Bounds-13" data-name="Bounds" class="cls-3" width="24" height="24"/>
        <path id="Icon-2" data-name="Icon" class="cls-12" d="M16.6,8.6,12,13.2,7.4,8.6,6,10l6,6,6-6Z"/>
      </g>
      <text id="Este_mes" data-name="Este mes" class="cls-13" transform="translate(18.957 29)"><tspan x="0" y="0">Este mes</tspan></text>
    </g>
    <text id="GLOBAL" class="cls-14" transform="translate(320.285 110)"><tspan x="-25.308" y="0">GLOBAL</tspan></text>
    <g id="Card_2" data-name="Card #2" transform="translate(8 188)">
      <g id="Card_bg-5" data-name="Card bg" transform="translate(-164)">
        <g class="cls-24" transform="matrix(1, 0, 0, 1, 156, -188)">
          <path id="Card_bg-6" data-name="Card bg" class="cls-5" d="M166,0H506c1.1,0,2,.558,2,1.24V152.578c0,.682-.9,1.24-2,1.24H166c-1.1,0-2-.558-2-1.24V1.24C164,.558,164.9,0,166,0Z" transform="translate(-156 188)"/>
        </g>
        <g class="cls-23" transform="matrix(1, 0, 0, 1, 156, -188)">
          <path id="Card_bg-7" data-name="Card bg" class="cls-15" d="M164.44,0h74.725c.242,0,.44.277.44.615V75.694c0,.338-.2.615-.44.615H164.44c-.242,0-.44-.277-.44-.615V.615C164,.277,164.2,0,164.44,0Z" transform="translate(96.4 228.08)"/>
        </g>
      </g>
      <text id="Has_ahorrado_5_2_más_que_la_media_global." data-name="Has ahorrado 5,2€ más que 
la media global." class="cls-11" transform="translate(16 85)"><tspan x="0" y="0">Has ahorrado 5,2€ más que </tspan><tspan x="0" y="20">la media global.</tspan></text>
      <text id="_ENHORABUENA_" data-name="¡ENHORABUENA!" class="cls-16" transform="translate(48 32)"><tspan x="0" y="0">¡ENHORABUENA!</tspan></text>
      <g id="Blank_Icon" data-name="Blank Icon" transform="translate(16 16)">
        <circle id="Icon-3" data-name="Icon" class="cls-17" cx="12" cy="12" r="12"/>
      </g>
      <image id="icons8-checkmark-80" width="24" height="24" transform="translate(16 16)" xlink:href="../../Downloads/icons8-checkmark-80.png"/>
    </g>
    <g id="Card_2-2" data-name="Card #2" transform="translate(8 342)">
      <g id="Card_bg-8" data-name="Card bg" transform="translate(-164)">
        <g class="cls-22" transform="matrix(1, 0, 0, 1, 156, -342)">
          <path id="Card_bg-9" data-name="Card bg" class="cls-5" d="M166,0H506c1.1,0,2,.486,2,1.08V132.887c0,.594-.9,1.08-2,1.08H166c-1.1,0-2-.486-2-1.08V1.08C164,.486,164.9,0,166,0Z" transform="translate(-156 342)"/>
        </g>
        <path id="Progress_Indicators_Circular" data-name="Progress Indicators / Circular" class="cls-18" d="M0-217.114H6.867c0,16.667,13.835,30.179,30.9,30.179s30.9-13.512,30.9-30.179-13.835-30.179-30.9-30.179V-254c20.859,0,37.769,16.514,37.769,36.886s-16.91,36.886-37.769,36.886S0-196.743,0-217.114Z" transform="translate(410.461 284.252)"/>
      </g>
      <text id="El_75_de_los_usuarios_mantiene_un_consumo_medio_parecido_a_ti." data-name="El 75% de los usuarios mantiene
un consumo medio parecido 
a ti." class="cls-11" transform="translate(21 53)"><tspan x="0" y="0">El 75% de los usuarios mantiene</tspan><tspan x="0" y="20">un consumo medio parecido </tspan><tspan x="0" y="40">a ti.</tspan></text>
      <text id="_75_" data-name="75%" class="cls-19" transform="translate(266 52)"><tspan x="0" y="22">75%</tspan></text>
    </g>
    <g id="Card_2-3" data-name="Card #2" transform="translate(-16.174 482.263)">
      <g id="Card_bg-10" data-name="Card bg" transform="translate(55.731 32.646)">
        <g class="cls-21" transform="matrix(1, 0, 0, 1, -39.56, -514.91)">
          <path id="Card_bg-11" data-name="Card bg" class="cls-20" d="M164.327,0h55.615c.18,0,.327.2.327.436V53.622c0,.24-.147.436-.327.436H164.327c-.18,0-.327-.2-.327-.436V.436C164,.2,164.147,0,164.327,0Z" transform="translate(-124.44 514.91)"/>
        </g>
      </g>
      <text id="Hoy_se_han_encendido_un_total_de_6.837.242_bombillas_en_todo_el_mundo." data-name="Hoy se han encendido un total
de 6.837.242 bombillas en todo
el mundo." class="cls-11" transform="translate(151.174 47.646)"><tspan x="0" y="0">Hoy se han encendido un total</tspan><tspan x="0" y="20">de 6.837.242 bombillas en todo</tspan><tspan x="0" y="40">el mundo.</tspan></text>
      <text id="TIP_DIARIO" data-name="TIP DIARIO" class="cls-16" transform="translate(151 17.737)"><tspan x="0" y="0">TIP DIARIO</tspan></text>
    </g>
  </g>
</svg>
